<svg xmlns="http://www.w3.org/2000/svg" xmlns:xlink="http://www.w3.org/1999/xlink" width="492" zoomAndPan="magnify" viewBox="0 0 369 305.999988" height="408" preserveAspectRatio="xMidYMid meet" version="1.0"><defs><clipPath id="16525122ac"><path d="M 0.0078125 0 L 369 0 L 369 304.5 L 0.0078125 304.5 Z M 0.0078125 0 " clip-rule="nonzero"/></clipPath><clipPath id="c64c248144"><path d="M 0.0078125 0 L 369 0 L 369 304.5 L 0.0078125 304.5 Z M 0.0078125 0 " clip-rule="nonzero"/></clipPath><clipPath id="17a4972084"><path d="M 0.0078125 0 L 207 0 L 207 304.5 L 0.0078125 304.5 Z M 0.0078125 0 " clip-rule="nonzero"/></clipPath><clipPath id="04ab0bec83"><path d="M 0.0078125 210 L 112 210 L 112 304.5 L 0.0078125 304.5 Z M 0.0078125 210 " clip-rule="nonzero"/></clipPath><clipPath id="f494ca9c10"><path d="M 9 0 L 210 0 L 210 304.5 L 9 304.5 Z M 9 0 " clip-rule="nonzero"/></clipPath><clipPath id="09f212d95a"><path d="M 7 27 L 364 27 L 364 304.5 L 7 304.5 Z M 7 27 " clip-rule="nonzero"/></clipPath></defs><path stroke-linecap="butt" transform="matrix(0.749994, -0.00305035, 0.00305035, 0.749994, 0.00000719773, 302.932857)" fill="none" stroke-linejoin="miter" d="M 0.00226871 2.001008 L 491.745983 2.000999 " stroke="#000000" stroke-width="4" stroke-opacity="1" stroke-miterlimit="4"/><g clip-path="url(#16525122ac)"><path fill="#fefef4" d="M 0.214844 0 L 368.796875 0 L 368.796875 304.5 L 0.214844 304.5 Z M 0.214844 0 " fill-opacity="1" fill-rule="nonzero"/><path fill="#98e3c4" d="M 0.214844 0 L 368.796875 0 L 368.796875 304.5 L 0.214844 304.5 Z M 0.214844 0 " fill-opacity="0.3" fill-rule="nonzero"/><path fill="#038db2" d="M 368.796875 49.917969 L 368.796875 97.414062 L 361.4375 96.117188 C 360.839844 95.78125 359.835938 95.207031 358.425781 94.34375 C 359.324219 92.175781 359.820312 89.796875 359.820312 87.308594 C 359.820312 82.003906 357.5625 77.21875 353.964844 73.851562 Z M 333.910156 0 L 264.964844 0 C 270.414062 10.898438 277.820312 23.242188 287.632812 35.046875 Z M 300.625 288.78125 L 300.558594 288.949219 L 294.167969 304.5 L 368.796875 304.5 L 368.796875 277.074219 L 304.972656 268.355469 Z M 199.363281 296.675781 L 204.929688 304.5 L 227.726562 304.5 L 201.800781 291.363281 Z M 330 150.777344 L 368.796875 156.285156 L 368.796875 126.34375 L 336.113281 122.132812 Z M 110.792969 80.503906 L 120.597656 82.777344 L 126.3125 98.222656 C 126.542969 97.753906 126.769531 97.296875 126.996094 96.832031 C 126.785156 97.261719 126.582031 97.683594 126.367188 98.113281 L 136.355469 111.535156 L 198.667969 66.050781 L 186.640625 49.667969 L 186.546875 49.433594 L 176.828125 25.042969 C 176.628906 24.929688 176.449219 24.757812 176.308594 24.5 C 174.128906 20.480469 173.277344 15.46875 172.039062 11.082031 C 171.003906 7.414062 170.089844 3.722656 169.292969 0 L 125.742188 0 L 84.265625 18.269531 L 110.753906 80.589844 C 110.769531 80.558594 110.78125 80.535156 110.792969 80.503906 Z M 21.023438 116.53125 C 21.207031 115.984375 21.414062 115.453125 21.628906 114.921875 L 0.214844 125.132812 L 0.214844 169.765625 C 0.832031 170.742188 1.445312 171.726562 2.0625 172.695312 Z M 307.984375 69.816406 C 304.132812 66.527344 300.054688 62.96875 295.742188 59.109375 C 292.359375 56.082031 289.167969 52.960938 286.160156 49.777344 L 251.089844 76.332031 L 268.886719 99.546875 Z M 199.378906 196.226562 L 259.792969 149.28125 L 221.464844 98.105469 L 160.800781 144.480469 Z M 198.261719 289.570312 L 178.835938 279.726562 L 178.246094 279.15625 C 153.949219 255.65625 125.910156 214.820312 94.574219 157.355469 C 90.621094 150.105469 86.613281 142.597656 82.558594 134.820312 C 76.625 123.449219 70.582031 111.515625 64.433594 99.027344 L 40.242188 110.09375 C 36.042969 112.015625 32.785156 115.625 31.308594 120 L 9.675781 184.09375 L 1.203125 209.1875 L 0.214844 212.113281 L 0.214844 218.785156 L 73.148438 286.449219 L 98.230469 304.5 L 200.066406 304.5 L 194.808594 297.105469 Z M 337.980469 222.378906 L 336.21875 235.558594 L 350.117188 237.414062 L 351.875 224.234375 Z M 317.824219 188.960938 L 287.207031 178.160156 L 254.410156 231.984375 L 302.210938 262.308594 Z M 79.09375 16.222656 L 72.195312 0 L 30.632812 0 C 34.757812 9.453125 39.441406 20.027344 44.601562 31.414062 Z M 79.09375 16.222656 " fill-opacity="1" fill-rule="nonzero"/></g><path fill="#206491" d="M 265.074219 22.484375 L 229.640625 48.347656 L 244.488281 67.71875 L 278.945312 41.625 C 273.675781 35.277344 269.074219 28.808594 265.074219 22.484375 Z M 265.074219 22.484375 " fill-opacity="1" fill-rule="nonzero"/><path fill="#206491" d="M 341.296875 98.363281 C 347.425781 98.363281 352.394531 93.398438 352.394531 87.273438 C 352.394531 81.148438 347.425781 76.179688 341.296875 76.179688 C 335.171875 76.179688 330.203125 81.148438 330.203125 87.273438 C 330.203125 93.398438 335.171875 98.363281 341.296875 98.363281 Z M 341.296875 98.363281 " fill-opacity="1" fill-rule="nonzero"/><g clip-path="url(#c64c248144)"><path fill="#64be8b" d="M 18.765625 0 C 23.332031 10.542969 28.667969 22.648438 34.621094 35.8125 L 7.539062 47.742188 L 0.214844 31.074219 L 0.214844 0 Z M 0.214844 55.292969 L 0.214844 120.746094 L 25.011719 108.921875 C 26.023438 107.554688 27.164062 106.285156 28.410156 105.125 L 5.503906 52.964844 Z M 155.472656 235.355469 C 165.550781 249.253906 175.542969 261.339844 185.210938 270.789062 L 251.738281 304.5 L 289.882812 304.5 L 296.828125 287.609375 L 301.332031 266.441406 L 199.003906 201.53125 Z M 351.890625 0 L 294.875 43.175781 C 297.4375 45.855469 300.140625 48.480469 302.984375 51.023438 C 306.988281 54.605469 310.78125 57.917969 314.378906 61 L 368.796875 6.007812 L 368.796875 0 Z M 305.800781 264.472656 L 368.796875 273.078125 L 368.796875 196.339844 L 321.628906 190.105469 Z M 311.078125 72.441406 L 271.292969 102.691406 L 300.46875 117.675781 L 326.160156 97.710938 C 324.128906 94.75 322.933594 91.167969 322.933594 87.308594 C 322.933594 85.699219 323.140625 84.140625 323.53125 82.652344 C 319.710938 79.613281 315.558594 76.21875 311.078125 72.441406 Z M 157.796875 146.984375 L 118.15625 177.003906 C 123.21875 185.753906 128.335938 194.289062 133.476562 202.507812 L 179.578125 176.332031 Z M 318.710938 184.789062 L 335.726562 104.855469 C 334.699219 104.527344 333.710938 104.105469 332.769531 103.609375 L 289.273438 174.777344 Z M 242.769531 119.40625 L 265.734375 101.945312 L 247.933594 78.726562 L 225.414062 95.777344 Z M 241.332031 70.109375 L 226.492188 50.753906 L 204.214844 66.910156 L 218.988281 87.027344 Z M 241.332031 70.109375 " fill-opacity="1" fill-rule="nonzero"/><path fill="#98e3c4" d="M 82.71875 14.625 L 76.5 0 L 115.917969 0 Z M 0.214844 40.925781 L 0.214844 50.96875 L 3.910156 49.339844 Z M 177.117188 19.15625 C 177.515625 18.785156 177.902344 18.414062 178.304688 18.042969 L 190.132812 47.734375 L 201.867188 63.714844 L 262.988281 19.105469 C 258.941406 12.414062 255.578125 5.945312 252.796875 0 L 172.195312 0 C 172.847656 2.980469 173.578125 5.941406 174.386719 8.886719 C 175.269531 12.109375 175.980469 15.796875 177.117188 19.15625 Z M 317.40625 63.574219 C 321.679688 67.183594 325.65625 70.445312 329.320312 73.371094 C 332.554688 70.570312 336.773438 68.871094 341.378906 68.871094 C 344.8125 68.871094 348.027344 69.820312 350.785156 71.460938 L 368.796875 43.550781 L 368.796875 11.636719 Z M 322.457031 186.222656 L 368.796875 192.34375 L 368.796875 158.636719 L 329.816406 153.039062 Z M 0.214844 224.1875 L 0.214844 304.5 L 91.449219 304.5 L 70.542969 289.433594 Z M 357.15625 106.144531 C 356.910156 106.015625 355 105.027344 351.402344 102.777344 C 348.515625 104.65625 345.070312 105.746094 341.378906 105.746094 C 340.78125 105.746094 340.1875 105.714844 339.605469 105.660156 L 337.027344 117.773438 L 368.796875 122.179688 L 368.796875 108.433594 L 357.882812 106.511719 Z M 262.921875 146.847656 L 297.339844 120.105469 L 268.140625 105.085938 L 245.113281 122.597656 Z M 135.59375 205.871094 C 141.441406 215.113281 147.3125 223.917969 153.164062 232.136719 L 196.25 198.65625 L 181.941406 179.511719 Z M 328.742188 100.722656 L 266.050781 149.433594 L 285.980469 172.566406 L 329.488281 101.386719 C 329.230469 101.171875 328.984375 100.949219 328.742188 100.722656 Z M 202.328125 198.949219 L 251.0625 229.863281 L 283.914062 175.953125 L 262.757812 151.992188 Z M 215.832031 89.417969 L 201.015625 69.242188 L 138.722656 114.710938 L 154.476562 135.882812 Z M 124.398438 102.101562 C 124.382812 102.132812 124.363281 102.171875 124.347656 102.207031 L 108.460938 85.316406 L 108.460938 85.3125 L 80.640625 19.867188 L 46.242188 35.019531 C 58.398438 61.726562 73.015625 92.53125 88.925781 123.347656 C 92.882812 131.011719 96.917969 138.675781 101.015625 146.277344 C 101.1875 145.976562 101.359375 145.679688 101.53125 145.375 C 101.359375 145.679688 101.1875 145.976562 101.015625 146.277344 C 104.871094 153.425781 108.777344 160.515625 112.722656 167.503906 L 151.316406 138.273438 Z M 35.722656 100.222656 L 59.664062 89.273438 C 51.199219 71.839844 43.316406 54.949219 36.257812 39.417969 L 9.128906 51.367188 L 31.613281 102.5625 C 32.90625 101.671875 34.28125 100.886719 35.722656 100.222656 Z M 35.722656 100.222656 " fill-opacity="1" fill-rule="nonzero"/></g><path fill="#fefef4" d="M 290.929688 5.789062 L 287.921875 1.863281 L 279.230469 8.273438 L 282.289062 12.21875 Z M 290.929688 5.789062 " fill-opacity="1" fill-rule="nonzero"/><g clip-path="url(#17a4972084)"><path fill="#206491" d="M 87.101562 123.023438 L 86.742188 122.332031 L 87.117188 121.644531 C 92.964844 110.890625 101.425781 95.183594 107.367188 83.011719 L 108.375 80.941406 L 125.171875 101.527344 L 124.75 102.378906 C 118.214844 115.535156 101.5625 145.078125 101.40625 145.351562 L 100.089844 147.664062 L 98.828125 145.324219 C 95.34375 138.855469 91.617188 131.773438 87.101562 123.023438 Z M 166.523438 0 C 143.816406 20.050781 128.195312 37.945312 120.929688 52.332031 C 117.847656 58.445312 109.902344 77.4375 109.566406 78.242188 L 109.234375 79.039062 L 125.734375 100.207031 L 126.773438 98.09375 C 132.5625 86.324219 136.082031 77.964844 138.910156 71.246094 C 140.304688 67.941406 141.507812 65.085938 142.765625 62.320312 C 150.53125 45.242188 180.136719 19.902344 206.035156 0 Z M 81.671875 243.9375 C 74.773438 237.914062 68.257812 232.222656 62.878906 226.617188 C 57.582031 221.097656 57.011719 212.609375 61.527344 206.4375 C 71.75 192.460938 88.074219 168.0625 95.121094 156.238281 L 95.550781 155.515625 L 95.148438 154.777344 C 94.238281 153.109375 93.339844 151.46875 92.445312 149.835938 C 89.511719 144.488281 86.746094 139.4375 83.75 133.695312 L 82.496094 131.296875 L 81.160156 133.652344 C 72.992188 148.046875 56.566406 173.460938 45.257812 190.058594 C 41.953125 194.914062 36.464844 197.8125 30.578125 197.8125 C 26.144531 197.8125 21.902344 196.160156 18.625 193.160156 C 12.300781 187.367188 10.683594 185.539062 10.285156 184.964844 L 9.675781 184.09375 L 0.289062 211.789062 C 7.320312 220.652344 17.535156 226.980469 27.058594 233.203125 C 30.261719 235.296875 33.289062 237.273438 35.910156 239.152344 C 69 262.90625 93.003906 283.703125 110.183594 304.5 L 136.898438 304.5 C 118.535156 276.140625 98.277344 258.441406 81.671875 243.9375 Z M 81.671875 243.9375 " fill-opacity="1" fill-rule="nonzero"/></g><path fill="#fefef4" d="M 9.078125 185.808594 L 9.085938 185.820312 C 9.082031 185.816406 9.078125 185.8125 9.078125 185.808594 Z M 9.078125 185.808594 " fill-opacity="1" fill-rule="nonzero"/><g clip-path="url(#04ab0bec83)"><path fill="#fefef4" d="M 36.769531 237.953125 C 26.453125 230.550781 10.117188 221.820312 0.859375 210.152344 L 0.214844 211.992188 L 0.214844 214.640625 C 7.378906 223.324219 16.46875 228.925781 25.851562 235.054688 C 29.035156 237.132812 32.039062 239.097656 34.617188 240.945312 C 66.804688 264.050781 90.316406 284.316406 107.289062 304.5 L 111.976562 304.5 C 94.867188 283.582031 70.699219 262.3125 36.769531 237.953125 Z M 36.769531 237.953125 " fill-opacity="1" fill-rule="nonzero"/></g><g clip-path="url(#f494ca9c10)"><path fill="#fefef4" d="M 83.125 242.273438 C 76.265625 236.28125 69.785156 230.621094 64.472656 225.085938 C 59.921875 220.339844 59.433594 213.046875 63.3125 207.742188 C 73.566406 193.71875 89.949219 169.238281 97.019531 157.367188 L 100.039062 152.222656 L 103.328125 146.445312 C 103.484375 146.171875 120.164062 116.578125 126.730469 103.359375 L 127.785156 101.234375 L 127.730469 101.160156 L 128.757812 99.070312 C 134.574219 87.242188 138.109375 78.847656 140.949219 72.105469 C 142.335938 68.8125 143.535156 65.96875 144.777344 63.234375 C 152.609375 46.011719 183.441406 19.976562 209.65625 0 L 203.585938 0 C 177.375 20.242188 149.09375 44.839844 141.421875 61.710938 C 137.535156 70.257812 134.007812 80.050781 125.449219 97.445312 L 110.925781 78.8125 C 110.925781 78.8125 119.152344 59.132812 122.246094 52.996094 C 129.121094 39.382812 144.34375 21.40625 168.757812 0 L 163.199219 0 C 141.285156 19.578125 126.140625 37.113281 118.957031 51.335938 C 115.835938 57.519531 107.863281 76.582031 107.523438 77.390625 L 106.78125 79.167969 L 105.378906 82.042969 C 99.460938 94.167969 79.238281 132.558594 79.238281 132.558594 C 71.097656 146.902344 54.714844 172.25 43.433594 188.816406 C 40.535156 193.066406 35.730469 195.601562 30.578125 195.601562 C 26.699219 195.601562 22.988281 194.15625 20.121094 191.53125 C 13.371094 185.351562 12.253906 183.925781 12.097656 183.703125 L 10.414062 181.90625 L 9.085938 185.820312 C 9.980469 187.09375 13.507812 190.46875 17.628906 194.246094 C 21.339844 197.644531 25.972656 199.289062 30.578125 199.289062 C 36.679688 199.289062 42.722656 196.398438 46.476562 190.886719 C 57.519531 174.679688 74.007812 149.238281 82.445312 134.378906 C 86.378906 141.921875 90.019531 148.453125 93.855469 155.484375 C 86.914062 167.132812 70.652344 191.460938 60.335938 205.566406 C 55.40625 212.308594 56.03125 221.609375 61.8125 227.636719 C 79.996094 246.578125 109.429688 265.089844 135.167969 304.5 L 139.535156 304.5 C 120.832031 275.214844 100.085938 257.089844 83.125 242.273438 Z M 88.410156 122.347656 C 95.347656 109.59375 103.105469 95.105469 108.691406 83.660156 L 123.429688 101.722656 C 116.863281 114.945312 100.292969 144.332031 100.128906 144.625 C 96.152344 137.25 92.25 129.785156 88.410156 122.347656 Z M 88.410156 122.347656 " fill-opacity="1" fill-rule="nonzero"/></g><path fill="#206491" d="M 168.472656 62.871094 L 177.445312 74.199219 L 167.71875 81.90625 L 158.742188 70.578125 Z M 160.453125 103.175781 L 163.867188 107.40625 L 173.136719 100.230469 L 169.777344 96.019531 Z M 291.222656 105.664062 L 299.824219 111.210938 L 310.109375 103.066406 L 302.777344 95.8125 Z M 20.648438 68.492188 L 26.414062 81.269531 L 38.539062 75.800781 L 32.777344 63.023438 Z M 219.222656 281.789062 L 228.882812 288.027344 L 235.285156 276.398438 L 225.320312 270.457031 Z M 260.667969 289.230469 L 277.597656 299.207031 L 285.464844 286.1875 L 267.957031 276.707031 Z M 2.640625 260.953125 L 9.394531 267.363281 L 12.855469 263.71875 L 6.101562 257.308594 Z M 229.742188 200.242188 L 235.511719 204.894531 L 244.296875 194.332031 L 238.527344 189.679688 Z M 54.5 5.917969 L 41.839844 10.957031 L 47.152344 24.292969 L 59.8125 19.253906 Z M 106.945312 220.480469 L 114.777344 231.457031 L 126.351562 223.203125 L 118.519531 212.226562 Z M 166.71875 233.632812 L 178.753906 243.738281 L 193.425781 231.585938 L 180.894531 221.730469 Z M 228.730469 166.019531 L 210.324219 142.789062 L 202.042969 149.347656 L 220.449219 172.578125 Z M 232.039062 147.128906 L 239.488281 156.523438 L 250.429688 147.855469 L 242.984375 138.460938 Z M 142.515625 268.34375 L 145.152344 272.355469 L 154.019531 266.765625 L 151.335938 262.730469 Z M 107.621094 15.347656 L 111.609375 25.691406 L 116.339844 23.792969 L 112.382812 13.402344 Z M 278.976562 211.226562 L 301.589844 221.859375 L 303.558594 214.101562 L 282.65625 203.78125 Z M 301.433594 18.832031 L 293.390625 8.273438 L 284.316406 15.179688 L 292.359375 25.738281 Z M 292.851562 64.589844 L 275.503906 78.320312 L 269.210938 71.03125 L 259.398438 78.464844 L 270.433594 92.859375 L 299.679688 70.621094 C 297.417969 68.648438 295.132812 66.632812 292.851562 64.589844 Z M 355.195312 175.84375 L 353.433594 186.199219 L 365.496094 188.253906 L 367.257812 177.894531 Z M 320.835938 233.339844 L 332.203125 234.859375 L 333.96875 221.628906 L 322.601562 220.113281 Z M 146.742188 178.695312 L 138.910156 167.71875 L 127.339844 175.972656 L 135.171875 186.949219 Z M 146.742188 178.695312 " fill-opacity="0.7" fill-rule="nonzero"/><path fill="#fefef4" d="M 188.984375 161.519531 L 194.554688 168.980469 L 190.527344 171.984375 L 184.957031 164.527344 Z M 225.414062 153.003906 L 232.328125 162.007812 L 236.414062 158.710938 L 229.480469 149.761719 Z M 240.296875 274.277344 L 244.3125 276.589844 L 249.722656 267.246094 L 245.550781 265.03125 Z M 275.972656 219.003906 L 283.914062 223.035156 L 285.714844 219.363281 L 277.769531 215.285156 Z M 237.519531 207.566406 L 246.695312 214.542969 L 255.71875 202.679688 L 246.542969 195.703125 Z M 199.707031 75.902344 L 189.976562 83.605469 L 198.949219 94.933594 L 208.679688 87.226562 Z M 28.332031 84.089844 L 33.644531 97.425781 L 46.300781 92.386719 L 40.988281 79.050781 Z M 201.871094 230.433594 L 206.902344 234.277344 L 218.945312 224.664062 L 213.671875 220.890625 Z M 38.8125 55.320312 L 34.5 45.355469 L 29.941406 47.460938 L 34.285156 57.378906 Z M 48.113281 292.46875 L 57.722656 301.996094 L 65.910156 293.742188 L 56.300781 284.214844 Z M 109.8125 31.398438 L 97.152344 36.4375 L 102.464844 49.773438 L 115.125 44.734375 Z M 22.578125 252.207031 L 12.96875 242.679688 L 4.78125 250.933594 L 14.390625 260.460938 Z M 133.269531 254.976562 L 140.308594 265.765625 L 149.582031 259.722656 L 142.539062 248.929688 Z M 350.363281 176.46875 L 345.867188 175.71875 L 344.046875 185.503906 L 348.589844 186.234375 Z M 323.261719 216.566406 L 333.976562 218.117188 L 334.621094 213.183594 L 323.878906 211.585938 Z M 268.625 112.550781 L 261.507812 117.960938 L 271.601562 129.984375 L 283.914062 120.414062 Z M 268.625 112.550781 " fill-opacity="1" fill-rule="nonzero"/><path fill="#98e3c4" d="M 97.984375 177.679688 L 105.007812 188.703125 L 93.289062 195.78125 L 86.382812 185.171875 Z M 91.421875 21.59375 L 95.765625 32.5 L 108.46875 27.445312 L 104.125 16.539062 Z M 152.503906 279.90625 L 159.390625 290.464844 L 167.558594 285.140625 L 160.667969 274.578125 Z M 185.207031 218.355469 L 197.941406 228.179688 L 210.1875 218.039062 L 197.03125 208.433594 Z M 48.65625 114.085938 L 54.351562 126.703125 L 70.675781 119.34375 L 64.984375 106.726562 Z M 248.972656 48.765625 L 243.796875 41.96875 L 235.84375 47.9375 L 241.03125 54.726562 Z M 164.660156 176.921875 L 161.667969 172.804688 L 152.660156 179.082031 L 155.601562 183.175781 Z M 315.851562 8.066406 L 309.710938 0 L 304.605469 0 L 296.742188 5.984375 L 304.757812 16.511719 Z M 299.039062 87.488281 L 313.195312 101.980469 L 321.300781 95.132812 L 306.097656 81.109375 Z M 284.949219 200.085938 L 295.15625 205.125 L 301.679688 191.929688 L 291.472656 186.886719 Z M 211.980469 68.109375 L 220.128906 79.203125 L 225.246094 75.328125 L 218.707031 63.199219 Z M 353.128906 200.175781 L 325.027344 196.425781 L 323.691406 206.4375 L 354.265625 210.140625 Z M 232.359375 257.675781 L 227.234375 267.1875 L 237.335938 273.066406 L 242.722656 263.292969 Z M 240.597656 293.351562 L 248.949219 298.691406 L 263.386719 273.632812 L 254.460938 268.8125 Z M 269.664062 231.429688 L 278.117188 235.605469 L 282.980469 225.769531 L 274.527344 221.59375 Z M 269.664062 231.429688 " fill-opacity="0.5" fill-rule="nonzero"/><path fill="#64be8b" d="M 66.25 33 L 71.855469 46.316406 L 60.414062 51.128906 L 54.808594 37.8125 Z M 147.949219 215.3125 L 156.15625 226.074219 L 165.402344 219.027344 L 157.195312 208.265625 Z M 95.570312 199.585938 L 103.792969 212.214844 L 115.636719 205.796875 L 107.277344 192.683594 Z M 163.757812 112.28125 L 170.140625 120.335938 L 180.566406 112.082031 L 174.179688 104.023438 Z M 116.9375 140.144531 L 125.914062 151.46875 L 144.820312 137.390625 L 135.847656 126.066406 Z M 138.164062 12.785156 L 134.335938 3.175781 L 121.90625 8.125 L 125.734375 17.734375 Z M 34.4375 119.941406 L 46.089844 145.777344 L 55.304688 141.625 L 43.648438 115.789062 Z M 271.839844 0 L 275.480469 4.78125 L 281.761719 0 Z M 11.632812 270.910156 L 22.417969 280.570312 L 34.914062 266.632812 L 24.132812 256.96875 Z M 31.292969 59.226562 L 26.582031 48.773438 L 14.410156 54.261719 L 19.125 64.710938 Z M 118.550781 264.382812 L 125.566406 275.136719 L 136.90625 267.742188 L 129.886719 256.992188 Z M 281.0625 237.210938 L 291.398438 242.316406 L 296.242188 232.511719 L 285.90625 227.40625 Z M 291.222656 62.390625 C 291.121094 62.300781 291.019531 62.210938 290.917969 62.121094 C 288.742188 60.171875 286.585938 58.136719 284.480469 56.035156 L 275.726562 62.667969 L 282.429688 69.347656 Z M 171.996094 60.640625 L 180.972656 71.964844 L 190.703125 64.257812 L 181.726562 52.933594 Z M 330.28125 183.203125 L 339.414062 184.757812 L 343.769531 159.148438 L 334.640625 157.59375 Z M 254.820312 169.515625 L 263.175781 177.664062 L 270.90625 169.738281 L 262.550781 161.589844 Z M 344.730469 47.082031 L 338.683594 54.476562 L 347.292969 61.511719 L 353.339844 54.117188 Z M 258.527344 45.953125 L 245.265625 55.742188 L 249.0625 60.527344 L 262.320312 50.742188 Z M 192.136719 175.859375 L 201.128906 187.207031 L 215.804688 175.582031 L 206.8125 164.234375 Z M 239.320312 10.425781 L 210.984375 31.128906 L 219.957031 42.453125 L 248.296875 21.75 Z M 220.464844 132.164062 L 229.570312 143.652344 L 240.472656 135.015625 L 231.367188 123.527344 Z M 220.464844 132.164062 " fill-opacity="1" fill-rule="nonzero"/><g clip-path="url(#09f212d95a)"><path fill="#038db2" d="M 186.824219 85.804688 L 195.800781 97.132812 L 186.070312 104.835938 L 177.09375 93.511719 Z M 142.371094 165.457031 L 150.230469 176.472656 L 159.695312 169.726562 L 151.835938 158.707031 Z M 266.433594 304.5 L 272.835938 304.5 L 274.363281 302.132812 L 269.808594 299.214844 Z M 7.585938 300.113281 L 12.011719 304.5 L 22.292969 304.5 L 25.382812 301.386719 L 15.769531 291.859375 Z M 196.269531 43.292969 L 205.242188 54.617188 L 214.972656 46.910156 L 206 35.585938 Z M 351.09375 159.53125 L 348.9375 172.195312 L 360.957031 174.238281 L 363.113281 161.574219 Z M 263.359375 27.75 L 248.058594 39.230469 L 253.691406 46.230469 L 269 34.738281 Z M 270.113281 188.859375 L 263.726562 182.496094 L 260.84375 185.472656 L 267.21875 191.878906 Z M 270.113281 188.859375 " fill-opacity="1" fill-rule="nonzero"/></g></svg>